<svg width="33" height="21" viewBox="0 0 33 21" fill="none" xmlns="http://www.w3.org/2000/svg">
<path d="M2.25614 0L4.35964 2.1035C4.45072 2.1978 4.50112 2.3241 4.49998 2.4552C4.49884 2.5863 4.44626 2.71171 4.35355 2.80441C4.26085 2.89711 4.13544 2.9497 4.00435 2.95084C3.87325 2.95198 3.74694 2.90158 3.65264 2.8105L2.75614 1.914V20.207H1.75614V1.914L0.859645 2.8105C0.813521 2.85825 0.758349 2.89635 0.697347 2.92255C0.636344 2.94876 0.570735 2.96255 0.504346 2.96313C0.437956 2.9637 0.372116 2.95105 0.310668 2.92591C0.24922 2.90077 0.193393 2.86364 0.146447 2.8167C0.0995006 2.76975 0.0623746 2.71393 0.0372341 2.65248C0.0120937 2.59103 -0.000558031 2.52519 1.88772e-05 2.4588C0.000595785 2.39241 0.0143884 2.3268 0.0405929 2.2658C0.0667975 2.2048 0.104889 2.14962 0.152644 2.1035L2.25614 0Z" fill="#DBD9FF"/>
<path fill-rule="evenodd" clip-rule="evenodd" d="M11.9368 2.707C11.9368 3.37004 11.6734 4.00593 11.2045 4.47477C10.7357 4.94361 10.0998 5.207 9.43678 5.207C8.77374 5.207 8.13785 4.94361 7.66901 4.47477C7.20017 4.00593 6.93678 3.37004 6.93678 2.707C6.93678 2.04396 7.20017 1.40807 7.66901 0.939233C8.13785 0.470392 8.77374 0.207 9.43678 0.207C10.0998 0.207 10.7357 0.470392 11.2045 0.939233C11.6734 1.40807 11.9368 2.04396 11.9368 2.707ZM10.9368 2.707C10.9368 3.10482 10.7787 3.48636 10.4974 3.76766C10.2161 4.04896 9.8346 4.207 9.43678 4.207C9.03895 4.207 8.65742 4.04896 8.37612 3.76766C8.09481 3.48636 7.93678 3.10482 7.93678 2.707C7.93678 2.30918 8.09481 1.92764 8.37612 1.64634C8.65742 1.36504 9.03895 1.207 9.43678 1.207C9.8346 1.207 10.2161 1.36504 10.4974 1.64634C10.7787 1.92764 10.9368 2.30918 10.9368 2.707ZM11.3933 20.207C11.0189 20.207 10.658 20.0671 10.3816 19.8146C10.1051 19.5621 9.9331 19.2154 9.89928 18.8425L9.52328 14.707H9.34978L8.97378 18.8425C8.96578 18.9323 8.94972 19.0211 8.92578 19.108C8.83808 19.4241 8.64918 19.7027 8.38802 19.9012C8.12685 20.0997 7.80781 20.2071 7.47978 20.207H7.43678C7.03895 20.207 6.65742 20.049 6.37612 19.7677C6.09481 19.4864 5.93678 19.1048 5.93678 18.707V14.3105C5.69455 14.13 5.49637 13.8969 5.35712 13.6288C5.21787 13.3607 5.14117 13.0645 5.13278 12.7625L5.00078 8.004C4.99281 7.71814 5.04624 7.4339 5.15745 7.17045C5.26867 6.90699 5.43509 6.67045 5.64549 6.47678C5.85589 6.28311 6.10538 6.13681 6.37713 6.04774C6.64887 5.95868 6.93656 5.92893 7.22078 5.9605L9.21578 6.1825C9.36311 6.1985 9.51044 6.1985 9.65778 6.1825L11.5878 5.9675C11.8767 5.93537 12.1691 5.96659 12.4447 6.059C12.7203 6.15142 12.9725 6.30279 13.1836 6.5026C13.3947 6.7024 13.5597 6.94582 13.6672 7.21591C13.7747 7.486 13.8219 7.77627 13.8058 8.0665L13.5418 12.818C13.5138 13.32 13.2978 13.7931 12.9368 14.143V18.707C12.9368 19.1048 12.7787 19.4864 12.4974 19.7677C12.2161 20.049 11.8346 20.207 11.4368 20.207H11.3933ZM6.93678 14.3105C6.93678 14.1548 6.90043 14.0013 6.83064 13.8622C6.76085 13.723 6.65954 13.6021 6.53478 13.509C6.4135 13.4187 6.31428 13.3021 6.24456 13.168C6.17485 13.0338 6.13646 12.8856 6.13228 12.7345L6.00028 7.9765C5.99626 7.83355 6.02294 7.6914 6.07854 7.55964C6.13413 7.42789 6.21733 7.30958 6.32254 7.21272C6.42774 7.11586 6.5525 7.04268 6.68839 6.99814C6.82428 6.95359 6.96814 6.93871 7.11028 6.9545L9.10528 7.1765C9.32528 7.201 9.54778 7.201 9.76828 7.1765L11.6983 6.9615C11.8428 6.94542 11.989 6.96105 12.1269 7.00728C12.2647 7.05352 12.3908 7.12925 12.4964 7.22921C12.602 7.32916 12.6845 7.45094 12.7382 7.58605C12.7918 7.72115 12.8154 7.86634 12.8073 8.0115L12.5433 12.7625C12.5293 13.0135 12.4213 13.25 12.2408 13.425C12.1446 13.5182 12.0681 13.6298 12.0159 13.7532C11.9637 13.8765 11.9368 14.0091 11.9368 14.143V18.707C11.9368 18.8396 11.8841 18.9668 11.7903 19.0606C11.6966 19.1543 11.5694 19.207 11.4368 19.207H11.3933C11.2685 19.207 11.1481 19.1603 11.056 19.0761C10.9638 18.9919 10.9065 18.8763 10.8953 18.752L10.5193 14.6165C10.4968 14.3679 10.3822 14.1366 10.1979 13.9682C10.0135 13.7998 9.77292 13.7065 9.52328 13.7065H9.34978C9.10013 13.7065 8.85951 13.7998 8.6752 13.9682C8.4909 14.1366 8.37624 14.3679 8.35378 14.6165L7.97778 18.752C7.96655 18.8762 7.90929 18.9918 7.81725 19.076C7.7252 19.1601 7.60501 19.2069 7.48028 19.207H7.43678C7.30417 19.207 7.17699 19.1543 7.08322 19.0606C6.98945 18.9668 6.93678 18.8396 6.93678 18.707V14.3105Z" fill="#DBD9FF"/>
<path d="M19.8794 4L19 4.83906V16.6031L19.8162 17.4375H31.6031L32.4375 16.6031V4.83531L31.6031 4H19.8794ZM25.4375 4.97094V6.21875H26V4.97094C26.7906 4.98031 27.5781 5.02812 28.3312 5.11562L27.9469 6.65L28.4906 6.7875L28.8906 5.18906C29.7406 5.31313 30.5312 5.48969 31.2188 5.71875L29.7188 9.21875C28.9031 9.01562 27.7531 8.89375 26.5469 8.85625C26.675 9.02812 26.75 9.24062 26.75 9.46875C26.75 10.0344 26.2844 10.5 25.7188 10.5C25.1531 10.5 24.6875 10.0344 24.6875 9.46875C24.6875 9.24062 24.7625 9.02812 24.8906 8.85625C23.6813 8.89375 22.5344 9.01562 21.7188 9.21875L20.2188 5.71875C20.9062 5.48969 21.6969 5.31313 22.5469 5.18906L22.9469 6.7875L23.4906 6.65L23.1062 5.11562C23.8594 5.02812 24.6469 4.98031 25.4375 4.97094ZM24.4781 5.60812L23.9594 5.82938L25.15 8.60938C25.3094 8.50625 25.4938 8.44375 25.6938 8.4375L24.4781 5.60812ZM25.7188 9C25.4563 9 25.25 9.20625 25.25 9.46875C25.25 9.73125 25.4563 9.9375 25.7188 9.9375C25.9812 9.9375 26.1875 9.73125 26.1875 9.46875C26.1875 9.20625 25.9812 9 25.7188 9ZM21.7188 13.9375H29.7188V14.5H21.7188V13.9375ZM21.7188 15.4375H29.7188V16H21.7188V15.4375Z" fill="white"/>
</svg>
